<svg xmlns="http://www.w3.org/2000/svg" height="40px" viewBox="0 -960 960 960" width="40px" fill="#000000"><path d="M507.17-334.83q11.5-11.5 11.5-27.17 0-15.67-11.5-27.17-11.5-11.5-27.17-11.5-15.67 0-27.17 11.5-11.5 11.5-11.5 27.17 0 15.67 11.5 27.17 11.5 11.5 27.17 11.5 15.67 0 27.17-11.5Zm-53.84-112.5h53.34q0-16.34.83-27.34t5.17-18.66q4-8 11.16-15.5 7.17-7.5 24.84-24.5 22.33-20.34 32.16-40.34 9.84-20 9.84-44.33 0-45.67-29.34-72.17-29.33-26.5-79.33-26.5-39 0-70 21.67t-42 57l48 19.33q7.67-21 25-33.83 17.33-12.83 39-12.83 25.33 0 40.33 13.66 15 13.67 15 35.67 0 17-7.83 29.83-7.83 12.84-27.5 30.17-17 15.33-26.67 26.17-9.66 10.83-14 21.16-4.33 9.34-6.16 23.17-1.84 13.83-1.84 38.17ZM480-168q129.33-118 191.33-214.17 62-96.16 62-169.83 0-115-73.5-188.17-73.5-73.16-179.83-73.16-106.33 0-179.83 73.16Q226.67-667 226.67-552q0 73.67 63 169.83Q352.67-286 480-168Zm0 88Q319-217 239.5-334.5T160-552q0-150 96.5-239T480-880q127 0 223.5 89T800-552q0 100-79.5 217.5T480-80Zm0-480Z"/></svg>